<svg id="Layer_1" data-name="Layer 1" xmlns="http://www.w3.org/2000/svg" viewBox="0 0 76.12 77.22"><defs><style>.cls-1{fill:#990202;}</style></defs><title>o svg</title><path class="cls-1" d="M64.26,12.51c0-1.45-3.79-3.91-2.6-4.9.8-.67,4.1,1.85,5,2.59,3.77,3,8,5.33,11.93,8.14,1.87,1.34,8.43.89,5.69,4.26-.47.58-3,3.28-2.66,3.9,3.33,5.91,5.92,12,6.34,19,.48,7.74-1.61,14.58-7.36,19.83C70.21,74.8,58.2,81.57,44.23,84.22c-15.82,3-30.06-7.82-32-23.86-1.41-11.65,2.63-21.53,10-30.13C30.93,20.07,41.9,13.8,55.4,12.35A42.34,42.34,0,0,1,64.26,12.51ZM62.37,27.18c-13.81.8-24.3,7.06-31,19.26a16.12,16.12,0,0,0-1.83,11.43c1.18,5.62,5.81,9.83,10.63,9.33C52.2,66,62.79,61,72.48,53.91A11.78,11.78,0,0,0,77,46.22C78,40.6,76.7,35.3,75,30a2,2,0,0,0-1.81-1.42C69.59,28,66.08,27.07,62.37,27.18Z" transform="translate(-11.94 -7.5)"/></svg>