<svg id="Layer_1" data-name="Layer 1" xmlns="http://www.w3.org/2000/svg" viewBox="0 0 125.65 105.87"><defs><style>.cls-1{fill:#fefdfd;}.cls-2{fill:#990202;}</style></defs><title>x</title><path class="cls-1" d="M134-19.37c0-1.91-.43-2.34-2.34-2.33" transform="translate(-8.39 21.7)"/><path class="cls-2" d="M74.46,82.3C70,74.71,64.5,67.82,59.05,60.92c-1.31-1.66-1-2.36.55-3.43,8.93-6.13,17.47-12.77,25.85-19.63a68.08,68.08,0,0,0,9.94-9.41c2-2.46,2-4,.11-6.61a24.52,24.52,0,0,1-2.17-3.41c-1.84-3.78-2.75-4.2-6.68-2.65-4.53,1.79-8.42,4.65-12.26,7.56-8.7,6.6-16.9,13.81-25,21.09-1.5,1.34-2.18,1.23-3.38-.37a337.11,337.11,0,0,1-20.3-30.32A21,21,0,0,0,22,8.91,3.75,3.75,0,0,0,17.81,8,28.46,28.46,0,0,1,11,9.72,2.72,2.72,0,0,0,8.5,12.5,13.43,13.43,0,0,0,8.72,16c1.4,7.37,5,13.74,9.11,19.89A166.8,166.8,0,0,0,34.92,56.77c-.87.74-1.62,1.41-2.4,2A157.61,157.61,0,0,1,10.37,74.44c-.84.48-2.14,1-2,2.08.21,1.33,1.66,1.58,2.81,1.74a27.8,27.8,0,0,0,10.07-.73C29,75.68,36,72,42.8,68.16c1.94-1.1,3.19-1,4.82.54,5.13,4.67,10.57,9,16.14,13.12.46.35,1.08.58,1.35,1.4l11,1a0,0,0,0,0,0,0A4.24,4.24,0,0,1,74.46,82.3Z" transform="translate(-8.39 21.7)"/></svg>