<svg id="Layer_1" data-name="Layer 1" xmlns="http://www.w3.org/2000/svg" viewBox="0 0 113.87 101.17"><defs><style>.cls-1{fill:#fefdfd;}.cls-2{fill:#990202;}</style></defs><title>xx</title><path class="cls-1" d="M125.61,2.33c0-1.91-.43-2.34-2.34-2.33" transform="translate(-11.74 0)"/><path class="cls-2" d="M74.59,68.3c-1.63-2.06-1.24-2.93.68-4.25,11.07-7.6,21.66-15.84,32.05-24.34A84.52,84.52,0,0,0,119.64,28c2.48-3.05,2.48-5,.14-8.19a31.17,31.17,0,0,1-2.69-4.23c-2.28-4.69-3.41-5.21-8.28-3.29-5.62,2.22-10.44,5.77-15.2,9.38-10.79,8.18-21,17.12-31,26.14-1.86,1.67-2.7,1.53-4.19-.45A419.47,419.47,0,0,1,33.25,9.8a25.92,25.92,0,0,0-4.6-6,4.64,4.64,0,0,0-5.19-1.13A35.63,35.63,0,0,1,15,4.82a3.38,3.38,0,0,0-3.1,3.45,17.09,17.09,0,0,0,.28,4.34c1.73,9.13,6.2,17,11.29,24.66A206.9,206.9,0,0,0,44.67,63.15c-1.08.92-2,1.75-3,2.48A194.4,194.4,0,0,1,14.23,85.06c-1,.6-2.65,1.24-2.48,2.58.26,1.65,2.06,2,3.49,2.16a34.53,34.53,0,0,0,12.48-.91C37.33,86.6,46,82,54.44,77.28c2.41-1.37,4-1.24,6,.66a253.66,253.66,0,0,0,20,16.27,77.76,77.76,0,0,0,7.11,3.66c.42.2,10,2.74,10.48,2.8l3.9.5" transform="translate(-11.74 0)"/></svg>
